<svg xmlns="http://www.w3.org/2000/svg" width="1024" height="1024" viewBox="0 0 1024 1024">
  <rect width="1024" height="1024" fill="#5D007F"/>
  <g transform="translate(-9.5,9)">
    <path fill="none" stroke="#FFFFFF" stroke-width="44" stroke-linecap="round" stroke-linejoin="round" d="M313 399.326V644.549C313 680.561 342.152 709.713 378.164 709.713H600.236C636.248 709.713 665.4 680.561 665.4 644.549V451.629"/>
    <path fill="#FFFFFF" d="M406.459 450.771H365.303C357.726 450.771 351.584 456.914 351.584 464.49V501.359C351.584 508.936 357.726 515.078 365.303 515.078H406.459C414.036 515.078 420.178 508.936 420.178 501.359V464.49C420.178 456.914 414.036 450.771 406.459 450.771Z"/>
    <path fill="#FFFFFF" d="M511.922 450.771H470.766C463.189 450.771 457.047 456.914 457.047 464.49V501.359C457.047 508.936 463.189 515.078 470.766 515.078H511.922C519.499 515.078 525.641 508.936 525.641 501.359V464.49C525.641 456.914 519.499 450.771 511.922 450.771Z"/>
    <path fill="#FFFFFF" d="M406.459 558.807H365.303C357.726 558.807 351.584 564.949 351.584 572.525V609.395C351.584 616.971 357.726 623.113 365.303 623.113H406.459C414.036 623.113 420.178 616.971 420.178 609.395V572.525C420.178 564.949 414.036 558.807 406.459 558.807Z"/>
    <path fill="#FFFFFF" d="M511.922 558.807H470.766C463.189 558.807 457.047 564.949 457.047 572.525V609.395C457.047 616.971 463.189 623.113 470.766 623.113H511.922C519.499 623.113 525.641 616.971 525.641 609.395V572.525C525.641 564.949 519.499 558.807 511.922 558.807Z"/>
    <path fill="#FFFFFF" d="M620.814 558.807H579.658C572.082 558.807 565.939 564.949 565.939 572.525V609.395C565.939 616.971 572.082 623.113 579.658 623.113H620.814C628.391 623.113 634.533 616.971 634.533 609.395V572.525C634.533 564.949 628.391 558.807 620.814 558.807Z"/>
    <path fill="#FFFFFF" d="M624.244 275C698.84 275 752 330.732 752 400.184C752 485.926 661.113 557.949 624.244 601.678C587.375 557.949 496.488 485.926 496.488 400.184C496.488 330.732 549.648 275 624.244 275Z"/>
    <path fill="#5D007F" d="M624.244 469.635C664.495 469.635 697.125 437.005 697.125 396.754C697.125 356.503 664.495 323.873 624.244 323.873C583.993 323.873 551.363 356.503 551.363 396.754C551.363 437.005 583.993 469.635 624.244 469.635Z"/>
    <path fill="#FFFFFF" d="M624.244 356.455L632.45 375.233L651.527 367.756L644.051 386.834L662.828 395.039L644.051 403.245L651.527 422.322L632.45 414.846L624.244 433.623L616.039 414.846L596.961 422.322L604.438 403.245L585.66 395.039L604.438 386.834L596.961 367.756L616.039 375.233L624.244 356.455Z"/>
    <path fill="none" stroke="#FFFFFF" stroke-opacity="0.34" stroke-width="9" stroke-linecap="round" d="M517.066 364.172C541.932 305.867 607.953 275.857 672.26 296.436"/>
    <path fill="none" stroke="#FFFFFF" stroke-opacity="0.35" stroke-width="10" stroke-linecap="round" d="M332.721 403.613H469.908"/>
  </g>
</svg>
